HIERARCHY
ROOT SpineBase
{
  OFFSET 0.000000 0.000000 0.000000
  CHANNELS 6 Xposition Yposition Zposition Zrotation Xrotation Yrotation
  JOINT SpineMid
  {
    OFFSET 0.000000 27.882604 0.000000
    CHANNELS 3 Zrotation Xrotation Yrotation
    JOINT SpineShoulder
    {
      OFFSET 0.015914 20.900576 -0.631733
      CHANNELS 3 Zrotation Xrotation Yrotation
      JOINT Neck
      {
        OFFSET -0.003695 6.969089 -0.512699
        CHANNELS 3 Zrotation Xrotation Yrotation
        JOINT Head
        {
          OFFSET -2.093636 10.611519 3.229709
          CHANNELS 3 Zrotation Xrotation Yrotation
          End Site
          {
            OFFSET 0 0 0
          }
        }
      }
      JOINT ShoulderLeft
      {
        OFFSET -6.636947 -6.699519 -12.611922
        CHANNELS 3 Zrotation Xrotation Yrotation
        JOINT ElbowLeft
        {
          OFFSET -6.766420 -21.167179 -0.443962
          CHANNELS 3 Zrotation Xrotation Yrotation
          JOINT WristLeft
          {
            OFFSET -1.773963 -19.120894 9.439519
            CHANNELS 3 Zrotation Xrotation Yrotation
            JOINT HandLeft
            {
              OFFSET 1.937917 -3.244576 -1.656617
              CHANNELS 3 Zrotation Xrotation Yrotation
              JOINT HandTipLeft
              {
                OFFSET -0.446823 -1.720409 -0.012485
                CHANNELS 3 Zrotation Xrotation Yrotation
                End Site
                {
                  OFFSET 0 0 0
                }
              }
              JOINT ThumbLeft
              {
                OFFSET -0.587864 0.692485 -0.571057
                CHANNELS 3 Zrotation Xrotation Yrotation
                End Site
                {
                  OFFSET 0 0 0
                }
              }
            }
          }
        }
      }
      JOINT ShoulderRight
      {
        OFFSET 2.994136 -3.841147 -6.602472
        CHANNELS 3 Zrotation Xrotation Yrotation
        JOINT ElbowRight
        {
          OFFSET -12.758869 -16.484721 -8.540896
          CHANNELS 3 Zrotation Xrotation Yrotation
          JOINT WristRight
          {
            OFFSET -5.430685 -20.099322 5.258699
            CHANNELS 3 Zrotation Xrotation Yrotation
            JOINT HandRight
            {
              OFFSET 3.126683 -5.638322 3.448531
              CHANNELS 3 Zrotation Xrotation Yrotation
              JOINT HandTipRight
              {
                OFFSET 0.107756 -3.745502 -2.207660
                CHANNELS 3 Zrotation Xrotation Yrotation
                End Site
                {
                  OFFSET 0 0 0
                }
              }
              JOINT ThumbRight
              {
                OFFSET 0.776461 -3.802914 -4.320706
                CHANNELS 3 Zrotation Xrotation Yrotation
                End Site
                {
                  OFFSET 0 0 0
                }
              }
            }
          }
        }
      }
    }
  }
  JOINT HipLeft
  {
    OFFSET -4.396239 1.425336 -0.738365
    CHANNELS 3 Zrotation Xrotation Yrotation
    JOINT KneeLeft
    {
      OFFSET 12.924016 -36.559092 0.577592
      CHANNELS 3 Zrotation Xrotation Yrotation
      JOINT AnkleLeft
      {
        OFFSET 7.669526 -32.454275 7.309853
        CHANNELS 3 Zrotation Xrotation Yrotation
        JOINT FootLeft
        {
          OFFSET -1.385361 -5.471270 -3.753937
          CHANNELS 3 Zrotation Xrotation Yrotation
          End Site
          {
            OFFSET 0 0 0
          }
        }
      }
    }
  }
  JOINT HipRight
  {
    OFFSET 4.478433 1.155818 -5.457205
    CHANNELS 3 Zrotation Xrotation Yrotation
    JOINT KneeRight
    {
      OFFSET -2.616000 -35.046243 -1.536136
      CHANNELS 3 Zrotation Xrotation Yrotation
      JOINT AnkleRight
      {
        OFFSET 3.770086 -36.256232 -2.870643
        CHANNELS 3 Zrotation Xrotation Yrotation
        JOINT FootRight
        {
          OFFSET -3.812666 -5.128673 -1.391137
          CHANNELS 3 Zrotation Xrotation Yrotation
          End Site
          {
            OFFSET 0 0 0
          }
        }
      }
    }
  }
}
MOTION
Frames: 10
Frame Time: 0.033333
-5.046020 77.057528 294.914607 0.104867 0.375554 32.172874 -0.288740 -0.262045 -32.173877 -0.000000 0.000000 0.000000 2.279849 0.365806 -0.626017 0.000000 0.000000 0.000000 -0.000000 0.000000 0.000000 3.608327 -2.527739 2.079318 -8.779487 17.579438 10.304692 42.960550 42.753767 -42.626855 0.000000 0.000000 0.000000 0.000000 0.000000 0.000000 1.443874 -0.943419 -0.006117 -2.996361 0.926079 -0.345142 2.176583 -0.565628 0.451366 1.618609 -2.434980 -1.438751 0.000000 0.000000 0.000000 0.000000 0.000000 0.000000 0.627146 -6.720528 -33.791327 -9.268233 10.623218 2.889659 31.628377 23.821320 -27.613782 0.000000 0.000000 0.000000 -0.288740 -0.262045 -32.173877 0.894465 0.630365 -0.010181 48.819549 20.497114 -52.228424 0.000000 0.000000 0.000000
-5.064366 77.059670 294.915763 0.120158 0.399019 32.168500 -0.314157 -0.273789 -32.169669 -0.000000 0.000000 0.000000 2.327352 0.443592 -0.626681 0.000000 0.000000 0.000000 -0.355841 1.050632 -0.324749 3.177694 -3.021514 1.989419 -8.437898 11.858898 7.849921 35.183851 39.729312 -33.290656 0.000000 0.000000 0.000000 0.000000 0.000000 0.000000 2.139265 -1.600273 0.163587 -2.584810 0.555643 0.070874 0.911549 0.352710 -0.277470 0.862799 -5.971393 -0.834036 0.000000 0.000000 0.000000 0.000000 0.000000 0.000000 0.536641 -6.047758 -33.613987 -8.291860 9.720603 2.551483 29.275309 22.870582 -25.835280 0.000000 0.000000 0.000000 -0.314157 -0.273789 -32.169669 0.433055 0.901974 0.056040 45.124310 22.166546 -49.947502 0.000000 0.000000 0.000000
-5.087446 77.098575 294.914745 0.112894 0.440331 32.613989 -0.332425 -0.310049 -32.615322 -0.000000 0.000000 0.000000 2.029095 0.571050 -0.512511 0.000000 0.000000 0.000000 -0.000000 0.000000 0.000000 2.439102 -1.991353 1.422007 -4.839428 9.427080 4.504148 30.494081 41.012615 -29.992267 0.000000 0.000000 0.000000 0.000000 0.000000 0.000000 2.516514 -2.393054 0.618170 -1.763510 0.113763 0.285116 -0.766342 4.512092 0.391176 -0.342846 -12.862423 -1.469875 0.000000 0.000000 0.000000 0.000000 0.000000 0.000000 0.343984 -4.622774 -33.686297 -6.111384 7.652647 1.870532 23.528864 20.249813 -21.430023 0.000000 0.000000 0.000000 -0.332425 -0.310049 -32.615322 1.112193 0.079793 -0.080454 36.536510 22.577965 -42.132511 0.000000 0.000000 0.000000
-5.126197 77.159827 294.916306 0.074789 0.450518 32.123478 -0.302905 -0.341774 -32.124675 -0.000000 0.000000 0.000000 1.378621 0.881656 -0.255067 0.000000 0.000000 0.000000 -0.000000 0.000000 0.000000 1.219942 -1.114427 0.714804 -0.907159 9.300818 3.895774 19.603003 30.996300 -20.667924 0.000000 0.000000 0.000000 0.000000 0.000000 0.000000 1.273439 -1.823586 0.785217 0.516114 -1.291385 0.555661 -2.388224 9.455975 1.940301 -1.922399 -17.995668 -2.943479 0.000000 0.000000 0.000000 0.000000 0.000000 0.000000 0.329019 -4.907046 -33.286398 -6.407524 8.343941 2.082451 25.366570 20.270528 -22.785606 0.000000 0.000000 0.000000 -0.302905 -0.341774 -32.124675 1.449674 -0.470367 -0.157590 22.033305 18.050742 -25.828986 0.000000 0.000000 0.000000
-5.100342 77.108133 294.954280 0.077357 0.457402 28.091223 -0.283629 -0.367092 -28.092440 -0.000000 0.000000 0.000000 0.073488 1.543564 0.280020 0.000000 0.000000 0.000000 -0.000000 0.000000 0.000000 1.466707 -1.473670 0.875176 -0.574679 11.266925 4.305356 13.654239 25.579968 -17.775883 0.000000 0.000000 0.000000 0.000000 0.000000 0.000000 -1.968217 0.554880 0.590575 4.870347 -4.344380 1.331932 -3.203730 12.284270 2.894078 -4.943345 -23.673759 -4.244821 0.000000 0.000000 0.000000 0.000000 0.000000 0.000000 0.478138 -6.049009 -29.626572 -7.869976 10.560087 2.825443 29.710115 21.081916 -25.745121 0.000000 0.000000 0.000000 -0.824323 0.699187 -28.099161 2.546830 -1.347061 -0.150769 7.580119 2.812315 -4.390935 0.000000 0.000000 0.000000
-5.043114 76.991700 295.011223 0.082932 0.471379 21.059708 -0.246783 -0.410091 -21.060933 -0.000000 0.000000 0.000000 -1.799759 2.423348 1.060510 0.000000 0.000000 0.000000 -0.000000 0.000000 0.000000 3.015618 -0.249871 1.520828 -5.936938 9.616348 5.693115 13.395306 14.772438 -14.214650 0.000000 0.000000 0.000000 0.000000 0.000000 0.000000 -5.506794 2.797636 0.784983 9.567161 -6.827735 1.973521 -3.971572 16.087264 4.858367 -10.197373 -33.407514 -7.820597 0.000000 0.000000 0.000000 0.000000 0.000000 0.000000 1.201093 -7.956927 -23.171624 -10.035358 13.735320 4.101725 35.465204 22.404545 -29.826263 0.000000 0.000000 0.000000 -0.448247 0.883923 -21.116165 1.658499 -1.172081 -0.000706 4.131444 -4.166108 2.095453 0.000000 0.000000 0.000000
-4.970472 76.836872 295.057789 0.027434 0.542059 11.664162 -0.136463 -0.525318 -11.664918 -0.000000 0.000000 0.000000 -3.637868 3.198472 1.836151 0.000000 0.000000 0.000000 -1.054850 0.254299 -0.056655 5.787680 1.384286 2.225058 -11.417714 8.469220 7.417557 14.650733 2.563561 -11.995947 0.000000 0.000000 0.000000 0.000000 0.000000 0.000000 -8.636533 5.694185 0.463623 14.670067 -9.607555 3.847025 -9.524053 23.587848 7.685238 -17.438788 -47.769055 -14.817080 0.000000 0.000000 0.000000 0.000000 0.000000 0.000000 3.032568 -10.417358 -14.439998 -13.437708 18.023197 6.125124 42.015096 23.366485 -33.844695 0.000000 0.000000 0.000000 -0.884204 2.500417 -11.802784 2.568821 -2.999742 0.129135 3.335899 -5.471164 3.460314 0.000000 0.000000 0.000000
-4.782183 76.531207 295.176163 0.013508 0.599756 1.559161 -0.029823 -0.599167 -1.559387 -0.000000 0.000000 0.000000 -5.368454 3.770937 2.553869 0.000000 0.000000 0.000000 -0.904582 -0.086072 0.045693 6.775384 3.894663 2.344229 -16.725420 4.122365 7.452696 19.531273 5.528396 -13.387346 0.000000 0.000000 0.000000 0.000000 0.000000 0.000000 -12.376603 8.419604 0.734078 18.836620 -10.784894 4.527366 -8.640073 22.185369 8.387624 -26.336558 -51.061895 -19.012597 0.000000 0.000000 0.000000 0.000000 0.000000 0.000000 4.549091 -10.638192 -4.496545 -13.199793 18.715956 6.551833 42.219285 23.127752 -34.081271 0.000000 0.000000 0.000000 -2.696242 4.756366 -1.733071 4.815972 -6.010555 0.361314 5.176548 -0.754411 -0.589333 0.000000 0.000000 0.000000
-4.517014 76.115022 295.337711 0.022992 0.652758 -7.658630 0.064209 -0.650000 7.658863 -0.311622 0.813306 -0.020293 -6.543272 3.310634 3.080081 0.000000 0.000000 0.000000 -0.676249 -0.799072 0.026887 7.834859 4.666106 2.724482 -20.458910 0.362338 6.054414 21.936256 2.161090 -11.392607 0.000000 0.000000 0.000000 0.000000 0.000000 0.000000 -15.335675 10.020367 0.907188 24.716776 -8.159518 5.159496 -8.546928 15.983741 8.880376 -22.114804 -42.588368 -15.871760 0.000000 0.000000 0.000000 0.000000 0.000000 0.000000 7.144260 -11.681733 4.363447 -15.620951 21.610402 8.237279 45.709213 23.389991 -35.949851 0.000000 0.000000 0.000000 -4.454615 5.789457 7.499665 5.688970 -7.458110 0.626572 7.224256 -3.389281 0.929061 0.000000 0.000000 0.000000
-4.214254 75.655682 295.520395 0.031087 0.719305 -14.782539 0.153480 -0.703428 14.783286 -0.393196 0.962547 -0.025129 -7.376058 3.203128 3.382699 0.000000 0.000000 0.000000 -1.603697 -0.107458 -0.217237 9.906438 3.669810 3.640800 -23.181151 -0.520346 5.395305 24.137346 5.152548 -12.345756 0.000000 0.000000 0.000000 0.000000 0.000000 0.000000 -18.108845 11.773157 1.338122 24.985256 -8.571459 4.411768 -4.368019 8.747979 7.481584 -19.738661 -39.434095 -11.145281 0.000000 0.000000 0.000000 0.000000 0.000000 0.000000 7.785151 -10.850544 11.519536 -13.698609 20.385816 7.598973 43.263192 23.152417 -34.814329 0.000000 0.000000 0.000000 -6.644345 6.535454 14.685533 6.954785 -9.162951 0.923795 8.401231 -6.746568 3.668111 0.000000 0.000000 0.000000
